<svg width="1180" height="1208" viewBox="0 0 1180 1208" fill="none" xmlns="http://www.w3.org/2000/svg">
<path d="M687.969 669.889L722.977 604.36C736.653 578.76 717.424 548.523 688.357 549.929L613.964 553.534C584.897 554.939 567.805 586.946 583.188 611.138L622.576 673.054C637.964 697.256 674.294 695.489 687.969 669.889Z" stroke="#293DFF" stroke-width="0.552088" stroke-miterlimit="10"/>
<path d="M695.211 680.218L734.591 594.482C747.642 568.112 727.16 538.075 697.728 540.415L603.522 550.645C574.087 552.992 557.78 585.956 574.161 609.986L628.995 685.495C645.368 709.523 682.157 706.596 695.211 680.218Z" stroke="#4051FF" stroke-width="0.552088" stroke-miterlimit="10"/>
<path d="M702.445 690.543L746.191 584.59C758.612 557.44 736.884 527.614 707.078 530.885L593.054 547.736C563.245 551.015 547.718 584.944 565.106 608.815L635.38 697.907C652.77 721.796 690.024 717.693 702.445 690.543Z" stroke="#5764FF" stroke-width="0.552088" stroke-miterlimit="10"/>
<path d="M709.685 700.881L757.802 574.721C769.599 546.802 746.622 517.168 716.443 521.388L582.609 544.863C552.434 549.075 537.686 583.977 556.075 607.68L641.793 710.363C660.174 734.063 697.891 728.793 709.685 700.881Z" stroke="#6E78FF" stroke-width="0.552088" stroke-miterlimit="10"/>
<path d="M716.921 711.206L769.412 564.834C780.577 536.141 756.355 506.71 725.802 511.861L572.151 541.957C541.608 547.103 527.642 582.971 547.03 606.512L648.194 722.78C667.576 746.337 705.756 739.899 716.921 711.206Z" stroke="#848CFF" stroke-width="0.552088" stroke-miterlimit="10"/>
<path d="M724.162 721.532L781.016 554.953C791.557 525.49 766.082 496.258 735.162 502.343L561.694 539.06C530.775 545.144 517.601 581.972 537.984 605.361L654.591 735.22C674.977 758.601 713.62 750.995 724.162 721.532Z" stroke="#9B9FFF" stroke-width="0.552088" stroke-miterlimit="10"/>
<path d="M730.468 731.564L791.697 544.768C801.607 514.531 774.888 485.501 743.6 492.519L550.318 535.861C519.03 542.879 506.637 580.674 528.012 603.899L660.065 747.354C681.443 770.572 720.556 761.809 730.468 731.564Z" stroke="#B2B3FF" stroke-width="0.552088" stroke-miterlimit="10"/>
<path d="M734.348 731.692L790.448 540.459C799.528 509.504 771.493 480.926 739.976 489.025L545.303 539.037C513.785 547.137 502.436 585.83 524.871 608.693L663.444 749.913C685.875 772.767 725.268 762.647 734.348 731.692Z" stroke="#94A0FD" stroke-width="0.552088" stroke-miterlimit="10"/>
<path d="M738.232 731.81L789.205 536.134C797.455 504.46 768.098 476.331 736.358 485.515L540.291 542.206C508.554 551.381 498.239 590.977 521.727 613.476L666.813 752.459C690.301 774.957 729.98 763.492 738.232 731.81Z" stroke="#778CFC" stroke-width="0.552088" stroke-miterlimit="10"/>
<path d="M742.111 731.937L787.955 531.824C795.373 499.431 764.702 471.755 732.735 482.011L535.285 545.377C503.317 555.633 494.047 596.128 518.585 618.269L670.192 755.017C694.733 777.151 734.693 764.33 742.111 731.937Z" stroke="#5979FA" stroke-width="0.552088" stroke-miterlimit="10"/>
<path d="M745.991 732.063L786.707 527.506C793.295 494.394 761.299 467.176 729.111 478.508L530.271 548.546C498.081 559.886 489.84 601.274 515.439 623.053L673.567 757.565C699.166 779.344 739.395 765.172 745.991 732.063Z" stroke="#3B66F8" stroke-width="0.552088" stroke-miterlimit="10"/>
<path d="M749.872 732.183L785.456 523.189C791.214 489.359 757.903 462.592 725.486 475.006L525.254 551.716C492.845 564.133 485.638 606.424 512.29 627.838L676.93 760.12C703.589 781.536 744.104 766.019 749.872 732.183Z" stroke="#1E52F7" stroke-width="0.552088" stroke-miterlimit="10"/>
<path d="M753.753 732.31L784.208 518.872C789.135 484.323 754.502 458.007 721.863 471.505L520.246 554.897C487.606 568.395 481.445 611.585 509.149 632.634L680.311 762.679C708.023 783.731 748.818 766.857 753.753 732.31Z" stroke="#003FF5" stroke-width="0.552088" stroke-miterlimit="10"/>
<path d="M757.384 731.012L781.418 513.75C785.309 478.579 749.323 453.002 716.65 467.713L514.814 558.58C482.141 573.29 477.273 617.253 506.062 637.716L683.873 764.113C712.65 784.564 753.493 766.183 757.384 731.012Z" stroke="#0843F7" stroke-width="0.552088" stroke-miterlimit="10"/>
<path d="M761.018 729.703L778.621 508.615C781.469 472.82 744.146 447.988 711.434 463.9L509.379 562.242C476.664 578.162 473.106 622.903 502.965 642.775L687.423 765.531C717.277 785.394 758.163 765.496 761.018 729.703Z" stroke="#0F47F8" stroke-width="0.552088" stroke-miterlimit="10"/>
<path d="M764.65 728.402L775.823 503.48C777.633 467.071 738.961 442.971 706.215 460.096L503.93 565.918C471.182 583.051 468.928 628.559 499.864 647.843L690.965 766.948C721.904 786.225 762.841 764.811 764.65 728.402Z" stroke="#174CFA" stroke-width="0.552088" stroke-miterlimit="10"/>
<path d="M768.282 727.103L773.024 498.355C773.79 461.321 733.773 437.963 700.993 456.301L498.492 569.591C465.713 587.929 464.75 634.217 496.764 652.914L694.515 768.369C726.532 787.057 767.509 764.134 768.282 727.103Z" stroke="#1E50FC" stroke-width="0.552088" stroke-miterlimit="10"/>
<path d="M771.915 725.802L770.232 493.23C769.96 455.582 728.593 432.957 695.78 452.507L493.055 573.263C460.242 592.813 460.581 639.877 493.667 657.975L698.07 769.78C731.168 787.891 772.188 763.45 771.915 725.802Z" stroke="#2554FD" stroke-width="0.552088" stroke-miterlimit="10"/>
<path d="M775.547 724.502L767.434 488.097C766.117 449.825 723.413 427.944 690.562 448.697L487.624 576.939C454.769 597.7 456.411 645.539 490.581 663.051L701.633 771.214C735.796 788.723 776.866 762.767 775.547 724.502Z" stroke="#2D58FF" stroke-width="0.552088" stroke-miterlimit="10"/>
<path d="M779.688 721.729L763.854 482.402C761.286 443.662 717.265 422.823 684.609 444.896L482.876 581.258C450.22 603.331 453.424 651.763 488.647 668.431L706.222 771.399C741.427 788.069 782.245 760.475 779.688 721.729Z" stroke="#4167FF" stroke-width="0.552088" stroke-miterlimit="10"/>
<path d="M783.826 718.963L760.261 476.721C756.444 437.503 711.1 417.722 678.635 441.106L478.11 585.579C445.642 608.97 450.41 657.989 486.694 673.815L710.784 771.584C747.058 787.415 787.635 758.178 783.826 718.963Z" stroke="#5576FF" stroke-width="0.552088" stroke-miterlimit="10"/>
<path d="M787.969 716.19L756.682 471.026C751.616 431.333 704.952 412.601 672.683 437.305L473.353 589.905C441.084 614.608 447.414 664.22 484.75 679.202L715.365 771.774C752.694 786.753 793.026 755.881 787.969 716.19Z" stroke="#6A85FF" stroke-width="0.552088" stroke-miterlimit="10"/>
<path d="M792.112 713.418L753.103 465.333C746.786 425.171 698.801 407.489 666.731 433.506L468.607 594.226C436.537 620.243 444.429 670.448 482.816 684.593L719.947 771.966C758.336 786.103 798.429 753.58 792.112 713.418Z" stroke="#7E95FF" stroke-width="0.552088" stroke-miterlimit="10"/>
<path d="M796.252 710.651L749.52 459.644C741.954 419.006 692.653 402.385 660.775 429.712L463.857 598.553C431.976 625.888 441.432 676.678 480.879 689.981L724.535 772.157C763.969 785.447 803.821 751.281 796.252 710.651Z" stroke="#92A4FF" stroke-width="0.552088" stroke-miterlimit="10"/>
<path d="M800.811 706.641L746.349 452.716C737.531 411.611 686.914 396.032 655.233 424.679L459.526 601.637C427.845 630.284 438.863 681.667 479.362 694.125L729.528 771.099C770.019 783.555 809.626 747.754 800.811 706.641Z" stroke="#A6B3FF" stroke-width="0.552088" stroke-miterlimit="10"/>
<path d="M805.689 702.035L742.026 445.803C731.818 404.564 680.157 390.397 649.038 420.307L455.799 606.336C424.679 636.246 437.439 687.788 478.763 699.124L735.666 769.328C777 780.659 815.896 743.274 805.689 702.035Z" stroke="#9DAFFF" stroke-width="0.552088" stroke-miterlimit="10"/>
<path d="M810.581 697.426L737.714 438.895C726.117 397.522 673.421 384.769 642.857 415.932L452.078 611.028C421.522 642.194 436.018 693.912 478.173 704.11L741.82 767.546C783.98 777.755 822.178 738.799 810.581 697.426Z" stroke="#94AAFF" stroke-width="0.552088" stroke-miterlimit="10"/>
<path d="M815.465 692.817L733.39 431.975C720.404 390.469 666.664 379.127 636.67 411.556L448.355 615.729C418.361 648.158 434.597 700.036 477.586 709.115L747.968 765.781C790.956 774.86 828.452 734.322 815.465 692.817Z" stroke="#8BA6FF" stroke-width="0.552088" stroke-miterlimit="10"/>
<path d="M820.344 688.212L729.066 425.07C714.68 383.436 659.915 373.502 630.477 407.184L444.628 620.427C415.195 654.119 433.171 706.164 476.99 714.106L754.116 764.005C797.932 771.955 834.73 729.846 820.344 688.212Z" stroke="#81A2FF" stroke-width="0.552088" stroke-miterlimit="10"/>
<path d="M825.234 683.605L724.749 418.153C708.974 376.385 653.165 367.862 624.296 402.81L440.911 625.13C412.042 660.077 431.756 712.29 476.4 719.11L760.262 762.24C804.917 769.056 841.002 725.371 825.234 683.605Z" stroke="#789DFF" stroke-width="0.552088" stroke-miterlimit="10"/>
<path d="M830.117 678.996L720.43 411.243C703.266 369.341 646.422 362.232 618.106 398.44L437.187 629.829C408.879 666.039 430.334 718.412 475.806 724.103L766.409 760.476C811.892 766.162 847.282 720.898 830.117 678.996Z" stroke="#6F99FF" stroke-width="0.552088" stroke-miterlimit="10"/>
<path d="M836.336 673.381L714.647 402.642C696.294 361.363 639.361 355.892 612.172 392.808L434.488 636.021C407.292 672.934 430.237 724.532 475.784 728.906L775.156 756.432C820.696 760.803 854.687 714.668 836.336 673.381Z" stroke="#639CFA" stroke-width="0.552088" stroke-miterlimit="10"/>
<path d="M842.545 667.765L708.848 394.037C689.308 353.373 632.289 349.558 606.214 387.169L431.765 642.205C405.691 679.816 430.12 730.655 475.738 733.7L783.884 752.392C829.496 755.453 862.083 708.437 842.545 667.765Z" stroke="#589FF5" stroke-width="0.552088" stroke-miterlimit="10"/>
<path d="M848.758 662.158L703.055 385.442C682.327 345.392 625.222 343.233 600.27 381.542L429.054 648.401C404.099 686.718 430.011 736.779 475.693 738.512L792.613 748.369C838.297 750.095 869.488 702.2 848.758 662.158Z" stroke="#4CA2F1" stroke-width="0.552088" stroke-miterlimit="10"/>
<path d="M854.975 656.544L697.264 376.84C675.348 337.412 618.154 336.89 594.318 375.912L426.336 654.594C402.503 693.608 429.902 742.903 475.651 743.316L801.345 744.339C847.097 744.745 876.892 695.972 854.975 656.544Z" stroke="#40A5EC" stroke-width="0.552088" stroke-miterlimit="10"/>
<path d="M861.192 650.931L691.482 368.24C668.379 329.426 611.099 330.56 588.385 370.28L423.625 660.789C400.911 700.509 429.793 749.026 475.617 748.122L810.084 740.313C855.906 739.391 884.295 689.744 861.192 650.931Z" stroke="#35A8E7" stroke-width="0.552088" stroke-miterlimit="10"/>
<path d="M867.401 645.316L685.686 359.636C661.386 321.442 604.022 324.224 582.43 364.641L420.902 666.972C399.308 707.397 429.678 755.14 475.571 752.916L818.81 736.274C864.705 734.043 891.701 683.51 867.401 645.316Z" stroke="#29ABE2" stroke-width="0.552088" stroke-miterlimit="10"/>
<path d="M874.245 638.508L678.436 352.234C653.073 314.848 595.913 319.266 575.545 360.183L420.368 674.897C399.999 715.814 431.697 762.551 477.431 759.013L828.417 730.572C874.14 727.04 899.6 675.892 874.245 638.508Z" stroke="#22A1DC" stroke-width="0.552088" stroke-miterlimit="10"/>
<path d="M881.085 631.691L671.183 344.824C644.758 308.245 587.802 314.3 568.665 355.718L419.838 682.816C400.7 724.233 433.73 769.949 479.293 765.11L838.022 724.88C883.585 720.041 907.511 668.27 881.085 631.691Z" stroke="#1B98D5" stroke-width="0.552088" stroke-miterlimit="10"/>
<path d="M887.924 624.881L663.93 337.42C636.44 301.656 579.691 309.34 561.776 351.257L419.288 690.742C401.377 732.651 435.741 777.364 481.146 771.211L847.628 719.187C893.023 713.038 915.415 660.644 887.924 624.881Z" stroke="#158ECF" stroke-width="0.552088" stroke-miterlimit="10"/>
<path d="M894.761 618.073L656.676 330.016C628.123 295.061 571.577 304.38 554.886 346.796L418.747 698.664C402.066 741.074 437.755 784.764 482.997 777.312L857.221 713.5C902.466 706.04 923.314 653.028 894.761 618.073Z" stroke="#0E84C9" stroke-width="0.552088" stroke-miterlimit="10"/>
<path d="M901.607 611.267L649.431 322.616C619.813 288.475 563.464 299.429 548.016 342.333L418.218 706.58C402.76 749.489 439.786 792.168 484.862 783.399L866.828 707.801C911.91 699.042 931.225 645.408 901.607 611.267Z" stroke="#077BC2" stroke-width="0.552088" stroke-miterlimit="10"/>
<path d="M910.332 605.051L644.067 315.801C613.378 282.464 557.239 295.056 543.013 338.461L419.555 715.106C405.33 758.51 443.686 800.177 488.601 790.11L878.324 702.715C923.23 692.645 941.013 638.385 910.332 605.051Z" stroke="#0071BC" stroke-width="0.552088" stroke-miterlimit="10"/>
<path d="M918.228 597.245L636.111 310.439C604.512 278.084 548.854 292.241 535.923 335.932L422.322 724.913C409.394 768.596 448.887 809.045 493.415 797.716L889.14 695.544C933.663 684.205 949.828 629.599 918.228 597.245Z" stroke="#0071BC" stroke-width="0.552088" stroke-miterlimit="10"/>
<path d="M926.128 589.429L628.157 305.068C595.65 273.688 540.471 289.418 528.838 333.387L425.088 734.701C413.455 778.67 454.095 817.897 498.235 805.307L899.955 688.353C944.096 675.764 958.635 620.808 926.128 589.429Z" stroke="#0071BC" stroke-width="0.552088" stroke-miterlimit="10"/>
<path d="M934.027 581.611L620.202 299.696C586.779 269.289 532.087 286.593 521.759 330.843L427.869 744.493C417.533 788.741 459.312 826.742 503.07 812.901L910.783 681.174C954.536 667.323 967.45 612.018 934.027 581.611Z" stroke="#0071BC" stroke-width="0.552088" stroke-miterlimit="10"/>
<path d="M941.927 573.803L612.247 294.334C577.914 264.91 523.703 283.779 514.673 328.308L430.644 754.294C421.613 798.823 464.529 835.605 507.892 820.501L921.607 673.993C964.97 658.889 976.26 603.227 941.927 573.803Z" stroke="#0071BC" stroke-width="0.552088" stroke-miterlimit="10"/>
<path d="M949.827 565.984L604.294 288.954C569.045 260.503 515.326 280.958 507.586 325.762L433.411 764.083C425.678 808.89 469.73 844.454 512.714 828.091L932.423 666.8C975.403 650.445 985.068 594.434 949.827 565.984Z" stroke="#0071BC" stroke-width="0.552088" stroke-miterlimit="10"/>
<path d="M957.73 558.166L596.34 283.583C560.181 256.114 506.944 278.134 500.51 323.219L436.189 773.875C429.754 818.96 474.953 853.3 517.546 835.684L943.25 659.609C985.84 642 993.886 585.642 957.73 558.166Z" stroke="#0071BC" stroke-width="0.552088" stroke-miterlimit="10"/>
<path d="M966.117 549.347L587.647 280.907C550.758 254.547 498.277 278.031 493.173 323.175L442.553 785.318C437.448 830.461 483.562 863.402 525.548 844.616L954.645 650.916C996.631 632.13 1003.01 575.699 966.117 549.347Z" stroke="#0866B5" stroke-width="0.552088" stroke-miterlimit="10"/>
<path d="M974.511 540.528L578.96 278.231C541.347 252.99 489.607 277.935 485.842 323.131L448.907 796.765C445.135 841.959 492.154 873.504 533.547 853.554L966.033 642.217C1007.41 622.255 1012.13 565.762 974.511 540.528Z" stroke="#0F5CAE" stroke-width="0.552088" stroke-miterlimit="10"/>
<path d="M982.909 531.704L570.28 275.543C531.933 251.418 480.952 277.821 478.513 323.065L455.271 808.192C452.831 853.436 500.763 883.589 541.549 862.469L977.428 633.505C1018.21 612.383 1021.26 555.828 982.909 531.704Z" stroke="#1751A7" stroke-width="0.552088" stroke-miterlimit="10"/>
<path d="M991.297 522.88L561.577 272.861C522.506 249.856 472.274 277.721 471.167 323.015L461.612 819.634C460.505 864.928 509.35 893.688 549.528 871.399L988.792 624.804C1028.99 602.504 1030.38 545.887 991.297 522.88Z" stroke="#1F46A0" stroke-width="0.552088" stroke-miterlimit="10"/>
<path d="M999.692 514.06L552.888 270.187C513.085 248.299 463.612 277.621 463.835 322.973L467.979 831.078C468.202 876.43 517.961 903.79 557.539 880.333L1000.2 616.102C1039.78 592.63 1039.5 535.948 999.692 514.06Z" stroke="#263C99" stroke-width="0.552088" stroke-miterlimit="10"/>
<path d="M1008.09 505.231L544.209 267.497C503.672 246.726 454.956 277.513 456.513 322.915L474.353 842.514C475.91 887.917 526.582 913.883 565.554 889.25L1011.6 607.385C1050.58 582.762 1048.63 526.003 1008.09 505.231Z" stroke="#2E3192" stroke-width="0.552088" stroke-miterlimit="10"/>
<path d="M1014.77 495.068L533.275 267.749C492.22 248.197 444.496 280.286 447.384 325.516L482.906 854.858C485.788 900.077 537.11 924.516 575.282 898.848L1021.25 596.823C1059.43 571.149 1055.82 514.619 1014.77 495.068Z" stroke="#2B2C8A" stroke-width="0.552088" stroke-miterlimit="10"/>
<path d="M1021.45 484.892L522.342 267.991C480.758 249.664 434.043 283.059 438.25 328.104L491.466 867.201C495.672 912.246 547.651 935.159 585.029 908.44L1030.92 586.245C1068.28 559.533 1063.03 503.227 1021.45 484.892Z" stroke="#282783" stroke-width="0.552088" stroke-miterlimit="10"/>
<path d="M1028.11 474.724L511.401 268.233C469.298 251.125 423.573 285.83 429.111 330.703L500.017 879.552C505.547 924.422 558.186 945.801 594.759 918.038L1040.57 575.68C1077.14 547.917 1070.22 491.833 1028.11 474.724Z" stroke="#25237B" stroke-width="0.552088" stroke-miterlimit="10"/>
<path d="M1034.79 464.546L500.468 268.474C457.836 252.592 413.123 288.596 419.977 333.291L508.576 891.886C515.433 936.574 568.726 956.434 604.493 927.626L1050.22 565.103C1086 536.301 1077.42 480.436 1034.79 464.546Z" stroke="#211E73" stroke-width="0.552088" stroke-miterlimit="10"/>
<path d="M1041.47 454.38L489.532 268.728C446.374 254.063 402.659 291.379 410.847 335.894L517.139 904.242C525.32 948.755 579.263 967.086 614.243 937.231L1059.89 554.542C1094.86 524.684 1084.63 469.044 1041.47 454.38Z" stroke="#1E196C" stroke-width="0.552088" stroke-miterlimit="10"/>
<path d="M1047.18 447.023L477.652 271.79C433.974 258.353 391.261 296.972 400.765 341.308L524.75 919.386C534.254 963.722 588.855 980.519 623.026 949.628L1068.58 546.775C1102.75 515.876 1090.86 460.46 1047.18 447.023Z" stroke="#1B1464" stroke-width="0.552088" stroke-miterlimit="10"/>
<path d="M1050.93 436.752L464.202 276.696C420.227 264.55 378.732 304.272 389.517 348.202L535.155 933.24C545.94 977.17 600.914 992.35 634.11 960.577L1075.2 535.595C1108.39 503.812 1094.91 448.899 1050.93 436.752Z" stroke="#273276" stroke-width="0.552088" stroke-miterlimit="10"/>
<path d="M1054.68 426.482L450.753 281.601C406.472 270.742 366.2 311.579 378.264 355.103L545.556 947.102C557.62 990.626 612.965 1004.2 645.184 971.524L1081.82 524.406C1114.04 491.741 1098.96 437.331 1054.68 426.482Z" stroke="#345088" stroke-width="0.552088" stroke-miterlimit="10"/>
<path d="M1062.18 405.939L423.859 291.413C378.981 283.142 341.151 326.189 355.767 368.898L566.371 974.816C580.987 1017.52 637.075 1027.87 667.348 993.428L1095.06 502.044C1125.32 467.595 1107.06 414.21 1062.18 405.939Z" stroke="#4C8CAC" stroke-width="0.552088" stroke-miterlimit="10"/>
<path d="M1065.93 395.669L410.41 296.314C365.234 289.332 328.622 333.483 344.514 375.794L576.769 988.666C592.655 1030.97 649.127 1039.7 678.417 1004.37L1101.68 490.855C1130.96 455.533 1111.11 402.65 1065.93 395.669Z" stroke="#59AABE" stroke-width="0.552088" stroke-miterlimit="10"/>
<path d="M1069.68 385.399L396.96 301.213C351.487 295.521 316.097 340.786 333.261 382.688L587.171 1002.53C604.336 1044.43 661.182 1051.54 689.498 1015.33L1108.31 479.677C1136.61 443.464 1115.15 391.09 1069.68 385.399Z" stroke="#65C8D0" stroke-width="0.552088" stroke-miterlimit="10"/>
<path d="M1069.85 374.848L381.351 310.896C335.803 306.523 301.817 352.668 320.171 393.948L599.474 1016.93C617.828 1058.21 674.762 1063.68 701.951 1026.76L1111.15 467.734C1138.34 430.828 1115.4 379.222 1069.85 374.848Z" stroke="#54D1D8" stroke-width="0.552088" stroke-miterlimit="10"/>
<path d="M1070.02 364.311L365.745 320.6C320.13 317.546 287.543 364.562 307.081 405.235L611.785 1031.36C631.326 1072.03 688.345 1075.84 714.419 1038.23L1113.99 455.815C1140.06 418.193 1115.64 367.365 1070.02 364.311Z" stroke="#43DAE0" stroke-width="0.552088" stroke-miterlimit="10"/>
<path d="M1070.19 353.759L350.135 330.278C304.453 328.545 273.262 376.439 293.989 416.489L624.083 1045.76C644.811 1085.81 701.916 1087.97 726.868 1049.66L1116.83 443.87C1141.78 405.554 1115.87 355.493 1070.19 353.759Z" stroke="#33E3E8" stroke-width="0.552088" stroke-miterlimit="10"/>
<path d="M1070.36 343.222L334.525 339.977C288.776 339.564 258.981 388.336 280.897 427.764L636.38 1060.18C658.296 1099.61 715.49 1100.13 739.325 1061.11L1119.67 431.934C1143.51 392.922 1116.11 343.628 1070.36 343.222Z" stroke="#22EDEF" stroke-width="0.552088" stroke-miterlimit="10"/>
<path d="M1070.53 332.673L318.919 349.655C273.095 350.559 244.704 400.212 267.807 439.025L648.684 1074.59C671.786 1113.41 729.066 1112.27 751.779 1072.55L1122.51 420.003C1145.24 380.286 1116.35 331.769 1070.53 332.673Z" stroke="#11F6F7" stroke-width="0.552088" stroke-miterlimit="10"/>
<path d="M1070.7 322.127L303.321 359.345C257.43 361.568 230.435 412.1 254.735 450.293L660.997 1089.01C685.296 1127.2 742.659 1124.42 764.251 1084L1125.37 408.07C1146.97 367.646 1116.6 319.904 1070.7 322.127Z" stroke="#00FFFF" stroke-width="0.552088" stroke-miterlimit="10"/>
<path d="M1067.14 309.267L286.604 371.915C240.881 375.448 215.422 426.594 240.777 463.977L675.706 1100.92C701.068 1138.31 758.227 1133.89 778.595 1092.98L1124.21 393.381C1144.57 352.466 1112.87 305.735 1067.14 309.267Z" stroke="#00D4FF" stroke-width="0.552088" stroke-miterlimit="10"/>
<path d="M1063.59 296.411L269.899 384.489C224.337 389.328 200.412 441.097 226.837 477.675L690.423 1112.85C716.848 1149.43 773.801 1143.38 792.938 1101.96L1123.04 378.703C1142.19 337.289 1109.15 291.564 1063.59 296.411Z" stroke="#00AAFF" stroke-width="0.552088" stroke-miterlimit="10"/>
<path d="M1060.03 283.546L253.193 397.051C207.793 403.197 185.409 455.591 212.899 491.353L705.139 1124.76C732.629 1160.53 789.376 1152.84 807.289 1110.93L1121.89 364.011C1139.8 322.104 1105.43 277.4 1060.03 283.546Z" stroke="#0080FF" stroke-width="0.552088" stroke-miterlimit="10"/>
<path d="M1056.47 270.687L236.486 409.618C191.254 417.072 170.396 470.087 198.951 505.034L719.851 1136.68C748.403 1171.63 804.946 1162.32 821.636 1119.9L1120.73 349.334C1137.41 306.917 1101.72 263.227 1056.47 270.687Z" stroke="#0055FF" stroke-width="0.552088" stroke-miterlimit="10"/>
<path d="M1052.92 257.821L219.774 422.173C174.703 430.934 155.381 484.564 185.003 518.713L734.554 1148.59C764.171 1182.73 820.517 1171.78 835.964 1128.88L1119.55 334.65C1135.01 291.738 1097.99 249.06 1052.92 257.821Z" stroke="#002BFF" stroke-width="0.552088" stroke-miterlimit="10"/>
<path d="M1045.31 243.655L198.985 433.437C154.073 443.504 136.291 497.76 166.971 531.093L745.197 1159.23C775.877 1192.56 832.02 1179.97 846.245 1136.57L1114.34 318.661C1128.58 275.246 1090.22 233.581 1045.31 243.655Z" stroke="#0000FF" stroke-width="0.552088" stroke-miterlimit="10"/>
</svg>
