<svg width="51" height="26" viewBox="0 0 51 26" fill="none" xmlns="http://www.w3.org/2000/svg">
<path d="M4.944 14.272C4.944 15.344 5.16 16.272 5.592 17.056C6.024 17.84 6.64 18.448 7.44 18.88C8.256 19.296 9.224 19.504 10.344 19.504C11.48 19.504 12.448 19.296 13.248 18.88C14.048 18.448 14.664 17.84 15.096 17.056C15.528 16.272 15.744 15.344 15.744 14.272V4H18.912V14.392C18.912 15.976 18.552 17.368 17.832 18.568C17.112 19.752 16.112 20.68 14.832 21.352C13.552 22.008 12.056 22.336 10.344 22.336C8.648 22.336 7.152 22.008 5.856 21.352C4.576 20.68 3.576 19.752 2.856 18.568C2.136 17.368 1.776 15.976 1.776 14.392V4H4.944V14.272Z" fill="url(#paint0_linear_586_400)"/>
<path d="M22.184 4V20.584L20.768 19.216H34.328V22H19.016V4H22.184Z" fill="url(#paint1_linear_586_400)"/>
<path d="M50 14.872C49.84 16.344 49.32 17.648 48.44 18.784C47.576 19.904 46.44 20.776 45.032 21.4C43.624 22.024 42.016 22.336 40.208 22.336C38.192 22.336 36.424 21.944 34.904 21.16C33.384 20.376 32.2 19.288 31.352 17.896C30.504 16.488 30.08 14.856 30.08 13C30.08 11.144 30.504 9.52 31.352 8.128C32.2 6.72 33.384 5.624 34.904 4.84C36.424 4.056 38.192 3.664 40.208 3.664C42.016 3.664 43.624 3.976 45.032 4.6C46.44 5.224 47.576 6.096 48.44 7.216C49.32 8.336 49.84 9.64 50 11.128H46.808C46.632 10.168 46.248 9.344 45.656 8.656C45.08 7.968 44.328 7.44 43.4 7.072C42.472 6.688 41.4 6.496 40.184 6.496C38.776 6.496 37.552 6.76 36.512 7.288C35.488 7.816 34.696 8.568 34.136 9.544C33.576 10.52 33.296 11.672 33.296 13C33.296 14.328 33.576 15.48 34.136 16.456C34.696 17.432 35.488 18.184 36.512 18.712C37.552 19.24 38.776 19.504 40.184 19.504C41.4 19.504 42.472 19.32 43.4 18.952C44.328 18.584 45.08 18.056 45.656 17.368C46.248 16.664 46.632 15.832 46.808 14.872H50Z" fill="url(#paint2_linear_586_400)"/>
<defs>
<linearGradient id="paint0_linear_586_400" x1="-2.1838" y1="-1.6904" x2="29.5743" y2="6.67521" gradientUnits="userSpaceOnUse">
<stop stop-color="#6E78FF"/>
<stop offset="0.161458" stop-color="#0080FF"/>
<stop offset="0.365385" stop-color="#54D1D8"/>
<stop offset="0.461538" stop-color="#00FFFF"/>
<stop offset="0.604167" stop-color="#0590FA"/>
<stop offset="0.703125" stop-color="#0843F7"/>
<stop offset="0.880208" stop-color="#077BC2"/>
<stop offset="1" stop-opacity="0"/>
</linearGradient>
<linearGradient id="paint1_linear_586_400" x1="15.1282" y1="-1.6904" x2="42.8262" y2="4.56342" gradientUnits="userSpaceOnUse">
<stop stop-color="#6E78FF"/>
<stop offset="0.161458" stop-color="#0080FF"/>
<stop offset="0.365385" stop-color="#54D1D8"/>
<stop offset="0.461538" stop-color="#00FFFF"/>
<stop offset="0.604167" stop-color="#0590FA"/>
<stop offset="0.703125" stop-color="#0843F7"/>
<stop offset="0.880208" stop-color="#077BC2"/>
<stop offset="1" stop-opacity="0"/>
</linearGradient>
<linearGradient id="paint2_linear_586_400" x1="26.7122" y1="-1.6904" x2="59.7735" y2="7.43318" gradientUnits="userSpaceOnUse">
<stop stop-color="#6E78FF"/>
<stop offset="0.161458" stop-color="#0080FF"/>
<stop offset="0.365385" stop-color="#54D1D8"/>
<stop offset="0.461538" stop-color="#00FFFF"/>
<stop offset="0.604167" stop-color="#0590FA"/>
<stop offset="0.703125" stop-color="#0843F7"/>
<stop offset="0.880208" stop-color="#077BC2"/>
<stop offset="1" stop-opacity="0"/>
</linearGradient>
</defs>
</svg>
