<svg width="846" height="871" viewBox="0 0 846 871" fill="none" xmlns="http://www.w3.org/2000/svg">
<path d="M503.538 481.465L531.164 436.052C541.955 418.311 529.321 396.246 508.416 396.332L454.912 396.558C434.007 396.645 420.518 418.826 430.626 436.479L456.506 481.661C466.617 499.321 492.746 499.207 503.538 481.465Z" stroke="#293DFF" stroke-width="0.552088" stroke-miterlimit="10"/>
<path d="M508.326 489.02L539.86 429.405C550.233 411.099 536.693 389.139 515.492 389.877L447.526 394.183C426.322 394.926 413.361 417.81 424.19 435.379L460.627 490.689C471.45 508.256 497.951 507.332 508.326 489.02Z" stroke="#4051FF" stroke-width="0.552088" stroke-miterlimit="10"/>
<path d="M513.109 496.573L548.548 422.75C558.499 403.871 544.057 382.023 522.553 383.409L440.122 391.794C418.615 393.186 406.178 416.778 417.734 434.265L464.723 499.696C476.28 517.195 503.159 515.451 513.109 496.573Z" stroke="#5764FF" stroke-width="0.552088" stroke-miterlimit="10"/>
<path d="M517.895 504.133L557.243 416.111C566.775 396.667 551.43 374.917 529.624 376.966L432.734 389.429C410.93 391.473 399.014 415.779 411.295 433.176L468.837 508.734C481.112 526.13 508.366 523.572 517.895 504.133Z" stroke="#6E78FF" stroke-width="0.552088" stroke-miterlimit="10"/>
<path d="M522.679 511.685L565.937 409.459C575.045 389.448 558.801 367.803 536.691 370.501L425.338 387.041C403.235 389.735 391.844 414.75 404.846 432.064L472.944 517.744C485.942 535.069 513.571 531.697 522.679 511.685Z" stroke="#848CFF" stroke-width="0.552088" stroke-miterlimit="10"/>
<path d="M527.466 519.238L574.627 402.812C583.316 382.235 566.167 360.693 543.758 364.042L417.943 384.659C395.534 388.007 384.674 413.728 398.396 430.964L477.046 526.77C490.771 544.001 518.777 539.815 527.466 519.238Z" stroke="#9B9FFF" stroke-width="0.552088" stroke-miterlimit="10"/>
<path d="M531.596 526.555L582.67 395.92C590.936 374.774 572.886 353.336 550.178 357.336L409.898 382.032C387.19 386.032 376.853 412.463 391.292 429.615L480.498 535.553C494.94 552.699 523.327 547.706 531.596 526.555Z" stroke="#B2B3FF" stroke-width="0.552088" stroke-miterlimit="10"/>
<path d="M534.374 526.774L581.941 392.826C589.64 371.143 570.629 349.984 547.714 354.743L406.174 384.131C383.259 388.891 373.636 415.993 388.851 432.922L482.822 537.482C498.034 554.403 526.675 548.457 534.374 526.774Z" stroke="#94A0FD" stroke-width="0.552088" stroke-miterlimit="10"/>
<path d="M537.156 526.988L581.218 389.72C588.349 367.5 568.372 346.618 545.254 352.14L402.454 386.225C379.339 391.742 370.422 419.519 386.407 436.222L485.139 539.403C501.123 556.106 530.022 549.213 537.156 526.988Z" stroke="#778CFC" stroke-width="0.552088" stroke-miterlimit="10"/>
<path d="M539.934 527.207L580.488 386.624C587.051 363.868 566.113 343.264 542.791 349.541L398.737 388.321C375.414 394.598 367.212 423.046 383.964 439.529L487.463 541.332C504.217 557.809 533.371 549.963 539.934 527.207Z" stroke="#5979FA" stroke-width="0.552088" stroke-miterlimit="10"/>
<path d="M542.712 527.425L579.761 383.523C585.756 360.23 563.849 339.909 540.327 346.943L395.014 390.416C371.49 397.455 363.992 426.57 381.518 442.83L489.785 543.254C507.312 559.513 536.712 550.717 542.712 527.425Z" stroke="#3B66F8" stroke-width="0.552088" stroke-miterlimit="10"/>
<path d="M545.491 527.639L579.031 380.423C584.458 356.593 561.59 336.551 537.86 344.345L391.289 392.512C367.565 400.308 360.774 430.098 379.071 446.132L492.098 545.18C510.4 561.216 540.057 551.473 545.491 527.639Z" stroke="#1E52F7" stroke-width="0.552088" stroke-miterlimit="10"/>
<path d="M548.271 527.859L578.303 377.323C583.162 352.955 559.327 333.191 535.396 341.748L387.57 394.615C363.639 403.172 357.562 433.634 376.629 449.442L494.423 547.111C513.495 562.921 543.406 552.224 548.271 527.859Z" stroke="#003FF5" stroke-width="0.552088" stroke-miterlimit="10"/>
<path d="M550.924 527.059L576.496 373.602C580.636 348.76 555.802 329.477 531.799 338.894L383.523 397.062C359.521 406.479 354.343 437.531 374.211 452.958L496.92 548.249C516.779 563.667 546.784 551.902 550.924 527.059Z" stroke="#0843F7" stroke-width="0.552088" stroke-miterlimit="10"/>
<path d="M553.579 526.253L574.685 369.872C578.101 344.553 552.278 325.757 528.201 336.026L379.475 399.495C355.396 409.77 351.127 441.416 371.786 456.458L499.408 549.377C520.063 564.412 550.158 551.57 553.579 526.253Z" stroke="#0F47F8" stroke-width="0.552088" stroke-miterlimit="10"/>
<path d="M556.232 525.452L572.874 366.143C575.569 340.354 548.749 322.034 524.6 333.163L375.417 401.938C351.266 413.072 347.904 445.305 369.358 459.965L501.891 550.503C523.348 565.157 553.538 551.24 556.232 525.452Z" stroke="#174CFA" stroke-width="0.552088" stroke-miterlimit="10"/>
<path d="M558.886 524.651L571.06 362.419C573.03 336.154 545.216 318.318 520.995 330.307L371.367 404.378C347.146 416.368 344.68 449.196 366.931 463.472L504.379 551.632C526.633 565.902 556.91 550.915 558.886 524.651Z" stroke="#1E50FC" stroke-width="0.552088" stroke-miterlimit="10"/>
<path d="M561.54 523.85L569.252 358.696C570.501 331.962 541.689 314.603 517.397 327.452L367.316 406.819C343.024 419.668 341.462 453.089 364.506 466.975L506.871 552.755C529.924 566.649 560.292 550.585 561.54 523.85Z" stroke="#2554FD" stroke-width="0.552088" stroke-miterlimit="10"/>
<path d="M564.193 523.05L567.439 354.967C567.963 327.756 538.162 310.883 513.795 324.586L363.27 409.263C338.901 422.971 338.244 456.984 362.089 470.488L509.369 553.893C533.209 567.395 563.672 550.256 564.193 523.05Z" stroke="#2D58FF" stroke-width="0.552088" stroke-miterlimit="10"/>
<path d="M567.269 521.224L565.087 350.819C564.731 323.234 533.944 307.059 509.666 321.706L359.688 412.188C335.41 426.835 335.851 461.32 360.485 474.258L512.65 554.183C537.271 567.122 567.618 548.812 567.269 521.224Z" stroke="#4167FF" stroke-width="0.552088" stroke-miterlimit="10"/>
<path d="M570.342 519.403L562.724 346.678C561.49 318.715 529.712 303.249 505.52 318.832L356.092 415.115C331.898 430.704 333.439 465.655 358.867 478.029L515.913 554.471C541.333 566.848 571.571 547.363 570.342 519.403Z" stroke="#5576FF" stroke-width="0.552088" stroke-miterlimit="10"/>
<path d="M573.418 517.576L560.372 342.529C558.259 314.188 525.492 299.425 501.39 315.953L352.502 418.046C328.4 434.573 331.039 469.996 357.256 481.804L519.188 554.764C545.399 566.57 575.525 545.915 573.418 517.576Z" stroke="#6A85FF" stroke-width="0.552088" stroke-miterlimit="10"/>
<path d="M576.495 515.75L558.019 338.38C555.026 309.666 521.27 295.606 497.26 313.073L348.921 420.973C324.91 438.44 328.647 474.334 355.65 485.582L522.464 555.057C549.469 566.299 579.488 544.464 576.495 515.75Z" stroke="#7E95FF" stroke-width="0.552088" stroke-miterlimit="10"/>
<path d="M579.57 513.928L555.663 334.235C551.792 305.142 517.05 291.794 493.125 310.197L345.336 423.906C321.409 442.315 326.246 478.675 354.044 489.358L525.744 555.35C553.534 566.024 583.443 543.015 579.57 513.928Z" stroke="#92A4FF" stroke-width="0.552088" stroke-miterlimit="10"/>
<path d="M582.99 511.233L553.647 329.224C548.896 299.761 513.169 287.111 489.335 306.458L342.102 425.969C318.268 445.317 324.204 482.147 352.789 492.263L529.363 554.766C557.943 564.881 587.739 540.703 582.99 511.233Z" stroke="#A6B3FF" stroke-width="0.552088" stroke-miterlimit="10"/>
<path d="M586.668 508.115L550.813 324.186C545.07 294.585 508.541 282.906 485.063 303.167L339.258 429.191C315.779 449.452 322.958 486.448 352.178 495.794L533.838 553.698C563.066 563.04 592.412 537.716 586.668 508.115Z" stroke="#9DAFFF" stroke-width="0.552088" stroke-miterlimit="10"/>
<path d="M590.357 504.995L547.987 319.153C541.252 289.414 503.928 278.707 480.801 299.874L336.419 432.408C313.297 453.578 321.715 490.752 351.574 499.315L538.326 552.624C568.188 561.194 597.092 534.734 590.357 504.995Z" stroke="#94AAFF" stroke-width="0.552088" stroke-miterlimit="10"/>
<path d="M594.041 501.875L545.153 314.11C537.426 284.235 499.3 274.497 476.534 296.58L333.577 435.631C310.811 457.714 320.472 495.055 350.97 502.849L542.809 551.561C573.307 559.355 601.767 531.751 594.041 501.875Z" stroke="#8BA6FF" stroke-width="0.552088" stroke-miterlimit="10"/>
<path d="M597.72 498.759L542.318 309.08C533.593 279.07 494.679 270.3 472.264 293.289L330.734 438.852C308.323 461.849 319.225 499.362 350.361 506.374L547.292 550.492C578.427 557.51 606.445 528.769 597.72 498.759Z" stroke="#81A2FF" stroke-width="0.552088" stroke-miterlimit="10"/>
<path d="M601.406 495.642L539.49 304.04C529.773 273.893 490.057 266.092 468.003 289.997L327.897 442.076C305.843 465.981 317.985 503.666 349.756 509.908L551.773 549.43C583.552 555.668 611.118 525.787 601.406 495.642Z" stroke="#789DFF" stroke-width="0.552088" stroke-miterlimit="10"/>
<path d="M605.089 492.523L536.66 299.006C525.952 268.721 485.44 261.892 463.735 286.708L325.056 445.297C303.357 470.115 316.741 507.967 349.148 513.434L556.254 548.368C588.669 553.831 615.797 522.808 605.089 492.523Z" stroke="#6F99FF" stroke-width="0.552088" stroke-miterlimit="10"/>
<path d="M609.768 488.738L532.846 292.732C521.261 262.853 480.624 257.184 459.702 282.537L322.896 449.615C301.968 474.966 316.451 512.313 348.961 516.846L562.69 545.775C595.194 550.306 621.35 518.622 609.768 488.738Z" stroke="#639CFA" stroke-width="0.552088" stroke-miterlimit="10"/>
<path d="M614.44 484.951L529.021 286.454C516.562 256.976 475.801 252.48 455.653 278.361L320.718 453.926C300.569 479.807 316.146 516.66 348.756 520.252L569.11 543.183C601.716 546.786 626.897 514.434 614.44 484.951Z" stroke="#589FF5" stroke-width="0.552088" stroke-miterlimit="10"/>
<path d="M619.115 481.171L525.2 280.184C511.866 251.106 470.982 247.783 451.612 274.193L318.549 458.246C299.177 484.661 315.846 521.008 348.552 523.671L575.53 540.605C608.238 543.262 632.451 510.244 619.115 481.171Z" stroke="#4CA2F1" stroke-width="0.552088" stroke-miterlimit="10"/>
<path d="M623.793 477.388L521.382 273.91C507.172 245.237 466.162 243.074 447.567 270.024L316.375 462.563C297.782 489.508 315.547 525.355 348.35 527.084L581.953 538.022C614.759 539.745 638.003 506.06 623.793 477.388Z" stroke="#40A5EC" stroke-width="0.552088" stroke-miterlimit="10"/>
<path d="M628.47 473.604L517.57 267.637C502.486 239.364 461.353 238.373 443.536 265.853L314.207 466.881C296.39 494.361 315.247 529.703 348.154 530.498L588.381 535.442C621.286 536.225 643.555 501.877 628.47 473.604Z" stroke="#35A8E7" stroke-width="0.552088" stroke-miterlimit="10"/>
<path d="M633.143 469.82L513.749 261.362C497.783 233.492 456.528 233.668 439.49 261.677L312.03 471.191C294.99 499.205 314.945 534.043 347.949 533.904L594.8 532.854C627.807 532.709 649.109 497.69 633.143 469.82Z" stroke="#29ABE2" stroke-width="0.552088" stroke-miterlimit="10"/>
<path d="M638.322 465.21L508.847 255.897C492.088 228.569 450.919 229.912 434.74 258.313L311.366 476.805C295.187 505.206 316.132 539.37 349.072 538.293L601.92 529.112C634.852 528.039 655.075 492.537 638.322 465.21Z" stroke="#22A1DC" stroke-width="0.552088" stroke-miterlimit="10"/>
<path d="M643.499 460.594L503.944 250.427C486.392 223.639 445.308 226.151 429.994 254.944L310.706 482.415C295.391 511.209 317.329 544.688 350.195 542.683L609.038 525.379C641.904 523.373 661.05 487.382 643.499 460.594Z" stroke="#1B98D5" stroke-width="0.552088" stroke-miterlimit="10"/>
<path d="M648.674 455.984L499.041 244.961C480.695 218.72 439.698 222.393 425.243 251.578L310.031 488.03C295.578 517.21 318.511 550.018 351.312 547.075L616.157 521.645C648.951 518.705 667.02 482.225 648.674 455.984Z" stroke="#158ECF" stroke-width="0.552088" stroke-miterlimit="10"/>
<path d="M653.848 451.375L494.137 239.497C474.999 213.796 434.088 218.637 420.491 248.213L309.363 493.642C295.773 523.215 319.694 555.337 352.427 551.467L623.266 517.916C656.001 514.041 672.986 477.075 653.848 451.375Z" stroke="#0E84C9" stroke-width="0.552088" stroke-miterlimit="10"/>
<path d="M659.028 446.768L489.241 234.034C469.308 208.879 428.477 214.885 415.754 244.846L308.703 499.249C295.972 529.213 320.89 560.659 353.553 555.85L630.385 514.179C663.052 509.377 678.96 471.923 659.028 446.768Z" stroke="#077BC2" stroke-width="0.552088" stroke-miterlimit="10"/>
<path d="M665.537 442.64L485.671 229.041C464.939 204.424 424.196 211.599 412.33 241.953L309.353 505.35C297.487 535.704 323.397 566.473 355.994 560.737L638.838 510.939C671.429 505.201 686.263 467.256 665.537 442.64Z" stroke="#0071BC" stroke-width="0.552088" stroke-miterlimit="10"/>
<path d="M671.512 437.341L480.175 224.971C458.752 201.021 418.292 209.322 407.343 239.921L310.957 512.391C300.011 542.985 326.784 572.927 359.153 566.284L646.882 506.185C679.247 499.535 692.934 461.291 671.512 437.341Z" stroke="#0071BC" stroke-width="0.552088" stroke-miterlimit="10"/>
<path d="M677.49 432.034L474.68 220.894C452.568 197.606 412.389 207.039 402.36 237.877L312.562 519.42C302.533 550.258 330.177 579.37 362.318 571.819L654.925 501.417C687.066 493.866 699.601 455.322 677.49 432.034Z" stroke="#0071BC" stroke-width="0.552088" stroke-miterlimit="10"/>
<path d="M683.467 426.726L469.184 216.816C446.378 194.189 406.486 204.755 397.381 235.835L314.179 526.452C305.069 557.53 333.578 585.808 365.494 577.358L662.978 496.655C694.891 488.198 706.274 449.353 683.467 426.726Z" stroke="#0071BC" stroke-width="0.552088" stroke-miterlimit="10"/>
<path d="M689.446 421.424L463.688 212.746C440.19 190.787 400.582 202.479 392.397 233.798L315.791 533.49C307.607 564.81 336.979 592.26 368.661 582.9L671.029 491.893C702.711 482.533 712.944 443.383 689.446 421.424Z" stroke="#0071BC" stroke-width="0.552088" stroke-miterlimit="10"/>
<path d="M695.424 416.114L458.193 208.663C434 187.364 394.683 200.198 387.413 231.754L317.399 540.52C310.134 572.079 340.37 598.701 371.829 588.435L679.074 487.121C710.532 476.861 719.612 437.411 695.424 416.114Z" stroke="#0071BC" stroke-width="0.552088" stroke-miterlimit="10"/>
<path d="M701.405 410.804L452.697 204.585C427.813 183.955 388.78 197.915 382.435 229.713L319.015 547.553C312.671 579.35 343.777 605.141 375.006 593.973L687.128 482.35C718.355 471.187 726.288 431.439 701.405 410.804Z" stroke="#0071BC" stroke-width="0.552088" stroke-miterlimit="10"/>
<path d="M707.78 404.795L446.573 202.391C421.121 182.524 382.572 197.548 377.179 229.43L323.144 555.868C317.751 587.75 349.569 612.577 380.408 600.559L695.656 476.527C726.495 464.51 733.234 424.656 707.78 404.795Z" stroke="#0866B5" stroke-width="0.552088" stroke-miterlimit="10"/>
<path d="M714.16 398.785L440.452 200.198C414.436 181.102 376.362 197.186 371.928 229.149L327.267 564.186C322.828 596.147 355.349 620.013 385.81 607.15L704.178 470.7C734.63 457.828 740.178 417.876 714.16 398.785Z" stroke="#0F5CAE" stroke-width="0.552088" stroke-miterlimit="10"/>
<path d="M720.543 392.771L434.336 197.996C407.751 179.669 370.163 196.812 366.678 228.852L331.398 572.49C327.913 604.53 361.144 627.437 391.215 613.724L712.707 464.863C742.772 451.148 747.129 411.098 720.543 392.771Z" stroke="#1751A7" stroke-width="0.552088" stroke-miterlimit="10"/>
<path d="M726.92 386.757L428.204 195.799C401.055 178.243 363.947 196.448 361.415 228.567L335.514 580.805C332.982 612.924 366.923 634.872 396.604 620.309L721.213 459.032C750.909 444.463 754.075 404.315 726.92 386.757Z" stroke="#1F46A0" stroke-width="0.552088" stroke-miterlimit="10"/>
<path d="M733.301 380.744L422.081 193.606C394.362 176.819 357.741 196.083 356.162 228.286L339.648 589.122C338.069 621.325 372.721 642.308 402.016 626.897L729.751 453.2C759.051 437.779 761.02 397.531 733.301 380.744Z" stroke="#263C99" stroke-width="0.552088" stroke-miterlimit="10"/>
<path d="M739.687 374.726L415.965 191.403C387.676 175.385 351.541 195.714 350.917 227.996L343.788 597.435C343.164 629.716 378.525 649.739 407.433 633.474L738.284 447.358C767.195 431.1 767.976 390.743 739.687 374.726Z" stroke="#2E3192" stroke-width="0.552088" stroke-miterlimit="10"/>
<path d="M744.891 367.694L408.118 191.205C379.41 176.036 343.935 197.321 344.273 229.524L349.457 606.451C349.791 638.646 385.679 657.606 414.053 640.58L745.636 440.14C774.019 423.11 773.599 382.863 744.891 367.694Z" stroke="#2B2C8A" stroke-width="0.552088" stroke-miterlimit="10"/>
<path d="M750.096 360.653L400.273 190.999C371.136 176.683 336.334 198.929 337.624 231.042L355.132 615.469C356.423 647.582 392.843 665.481 420.689 647.683L753.004 432.911C780.842 415.117 779.231 374.975 750.096 360.653Z" stroke="#282783" stroke-width="0.552088" stroke-miterlimit="10"/>
<path d="M755.295 353.616L392.421 190.794C362.864 177.327 328.721 200.534 330.973 232.569L360.802 624.492C363.049 656.524 400.003 673.355 427.313 654.79L760.358 425.689C787.667 407.124 784.857 367.086 755.295 353.616Z" stroke="#25237B" stroke-width="0.552088" stroke-miterlimit="10"/>
<path d="M760.502 346.572L384.574 190.588C354.59 177.974 321.121 202.136 324.325 234.087L366.479 633.503C369.685 665.449 407.168 681.223 433.941 661.89L767.715 418.458C794.499 399.129 790.484 359.193 760.502 346.572Z" stroke="#211E73" stroke-width="0.552088" stroke-miterlimit="10"/>
<path d="M765.708 339.535L376.725 190.391C346.315 178.624 313.511 203.75 317.68 235.617L372.158 642.531C376.322 674.395 414.331 689.105 440.58 669.002L775.082 411.238C801.326 391.133 796.118 351.303 765.708 339.535Z" stroke="#1E196C" stroke-width="0.552088" stroke-miterlimit="10"/>
<path d="M770.106 334.468L368.094 192.168C337.263 181.257 305.128 207.34 310.248 239.121L377.051 653.503C382.172 685.285 420.713 698.925 446.421 678.061L781.632 405.973C807.343 385.103 800.937 345.379 770.106 334.468Z" stroke="#1B1464" stroke-width="0.552088" stroke-miterlimit="10"/>
<path d="M773.165 327.292L358.245 195.236C327.153 185.232 295.851 212.136 301.905 243.667L383.978 663.651C390.032 695.182 428.902 707.686 453.943 686.166L786.79 398.238C811.828 376.711 804.258 337.296 773.165 327.292Z" stroke="#273276" stroke-width="0.552088" stroke-miterlimit="10"/>
<path d="M776.224 320.116L348.397 198.302C317.038 189.204 286.572 216.936 293.56 248.217L390.901 673.803C397.888 705.085 437.083 716.457 461.457 694.269L791.943 390.497C816.314 368.314 807.58 329.208 776.224 320.116Z" stroke="#345088" stroke-width="0.552088" stroke-miterlimit="10"/>
<path d="M782.341 305.764L328.707 204.434C296.822 197.154 268.026 226.53 276.876 257.31L404.752 694.099C413.602 724.88 453.451 733.985 476.494 710.48L802.249 375.027C825.281 351.519 814.225 313.044 782.341 305.764Z" stroke="#4C8CAC" stroke-width="0.552088" stroke-miterlimit="10"/>
<path d="M785.399 298.589L318.861 207.494C286.714 201.121 258.75 231.317 268.531 261.854L411.671 704.242C421.446 734.776 461.631 742.742 484.003 718.58L807.401 367.287C829.765 343.129 817.545 304.962 785.399 298.589Z" stroke="#59AABE" stroke-width="0.552088" stroke-miterlimit="10"/>
<path d="M788.456 291.414L309.015 210.552C276.606 205.086 249.478 236.11 260.186 266.396L418.591 714.39C429.299 744.676 469.813 751.505 491.518 726.688L812.555 359.556C834.25 334.735 820.865 296.881 788.456 291.414Z" stroke="#65C8D0" stroke-width="0.552088" stroke-miterlimit="10"/>
<path d="M788.948 283.924L297.432 216.934C264.921 212.401 238.768 244.093 250.353 273.973L426.849 724.974C438.434 754.853 479.072 760.522 499.994 735.168L815.014 351.156C835.94 325.81 821.459 288.457 788.948 283.924Z" stroke="#54D1D8" stroke-width="0.552088" stroke-miterlimit="10"/>
<path d="M789.444 276.443L285.853 223.329C253.245 219.731 228.063 252.084 240.521 281.568L435.11 735.578C447.57 765.057 488.33 769.553 508.479 743.672L817.48 342.775C837.626 316.887 822.052 280.041 789.444 276.443Z" stroke="#43DAE0" stroke-width="0.552088" stroke-miterlimit="10"/>
<path d="M789.935 268.951L274.272 229.705C241.566 227.042 217.354 260.06 230.687 289.138L443.363 746.158C456.696 775.236 497.58 778.559 516.95 752.149L819.938 334.376C839.309 307.961 822.64 271.614 789.935 268.951Z" stroke="#33E3E8" stroke-width="0.552088" stroke-miterlimit="10"/>
<path d="M790.427 261.47L262.69 236.094C229.888 234.366 206.644 268.05 220.854 296.723L451.612 756.752C465.822 785.424 506.831 787.587 525.426 760.638L822.398 325.982C840.997 299.04 823.232 263.193 790.427 261.47Z" stroke="#22EDEF" stroke-width="0.552088" stroke-miterlimit="10"/>
<path d="M790.92 253.981L251.113 242.468C218.207 241.672 195.938 276.024 211.022 304.296L459.866 767.338C474.95 795.61 516.082 796.601 533.898 769.122L824.861 317.594C842.683 290.117 823.826 254.776 790.92 253.981Z" stroke="#11F6F7" stroke-width="0.552088" stroke-miterlimit="10"/>
<path d="M791.416 246.494L239.542 248.849C206.539 248.988 185.237 284.005 201.203 311.874L468.126 777.928C484.092 805.797 525.345 805.621 542.382 777.613L827.333 309.205C844.373 281.191 824.419 246.355 791.416 246.494Z" stroke="#00FFFF" stroke-width="0.552088" stroke-miterlimit="10"/>
<path d="M789.305 237.249L227.046 257.238C194.115 258.312 173.894 293.812 190.646 321.138L478.185 786.813C494.943 814.141 536.111 812.797 552.289 784.398L827.009 298.733C843.187 270.334 822.236 236.175 789.305 237.249Z" stroke="#00D4FF" stroke-width="0.552088" stroke-miterlimit="10"/>
<path d="M787.197 228.006L214.56 265.629C181.696 267.634 162.552 303.623 180.102 330.41L488.249 795.707C505.799 822.493 546.88 819.982 562.194 791.19L826.685 288.27C842.004 259.48 820.063 225.995 787.197 228.006Z" stroke="#00AAFF" stroke-width="0.552088" stroke-miterlimit="10"/>
<path d="M785.09 218.758L202.074 274.01C169.278 276.948 151.216 313.427 169.56 339.667L498.311 804.588C516.655 830.828 557.649 827.155 572.103 797.972L826.368 277.798C840.82 248.62 817.887 215.82 785.09 218.758Z" stroke="#0080FF" stroke-width="0.552088" stroke-miterlimit="10"/>
<path d="M782.98 209.514L189.588 282.394C156.863 286.265 139.872 323.231 159.011 348.924L508.368 813.472C527.505 839.171 568.412 834.331 582.008 804.757L826.046 267.336C839.636 237.76 815.712 205.639 782.98 209.514Z" stroke="#0055FF" stroke-width="0.552088" stroke-miterlimit="10"/>
<path d="M780.873 200.265L177.099 290.768C144.441 295.571 128.529 333.02 148.463 358.18L518.418 822.354C538.349 847.507 579.176 841.501 591.898 811.543L825.709 256.87C838.446 226.905 813.531 195.462 780.873 200.265Z" stroke="#002BFF" stroke-width="0.552088" stroke-miterlimit="10"/>
<path d="M775.918 189.96L161.728 298.092C129.134 303.827 114.303 341.768 135.027 366.382L525.607 830.212C546.331 854.826 587.075 847.653 598.94 817.302L822.548 245.346C834.422 214.986 808.514 184.219 775.918 189.96Z" stroke="#0000FF" stroke-width="0.552088" stroke-miterlimit="10"/>
</svg>
